# xmcd
#
# Track frame offsets: 
#        150
#        10001
#        20815
#        29212
#        36843
#        47766
#        56769
#        68363
#        78460
#        90690
#        98698
#        111478
#        123370
#        133247
#        143522
#        154717
#        163086
#        173865
#        184842
#        197436
#        209492
#        217517
#        229536
#        240999
#        251032
#        263461
#        271088
#        281159
#
# Disc length: 3874 seconds
#
# Revision: 1
# Processed by: cddbd v1.5.2PL0 Copyright (c) Steve Scherf et al.
# Submitted via: ExactAudioCopy v1.0b6
#
DISCID=830f201c
DTITLE=Johnny Cash - 8 classic albums - CD 1
DYEAR=2011
DGENRE=Country
TTITLE0=Rock Island Line
TTITLE1=(I heard that) Lonesome whistle
TTITLE2=Country boy
TTITLE3=If the good Lord's willing
TTITLE4=Cry cry cry
TTITLE5=Remember me (I'm the one who loves you)
TTITLE6=So doggone lonesome
TTITLE7=I was there when it happened
TTITLE8=I walk the line
TTITLE9=Wreck of the old 97
TTITLE10=Folsom prison blues
TTITLE11=Doin' my time
TTITLE12=Ballad of a teenage queen
TTITLE13=There you go
TTITLE14=Don't make me go
TTITLE15=Guess things happen that way
TTITLE16=Train of love
TTITLE17=The ways of a women in love
TTITLE18=Next in line
TTITLE19=You're the nearest thing to heaven
TTITLE20=I can't help it (If I'm still in love with you)
TTITLE21=Home of the blues
TTITLE22=Big river
TTITLE23=Hey porter
TTITLE24=Give my love to Rosie
TTITLE25=Come in stranger
TTITLE26=All over again
TTITLE27=What do I care
EXTD=
EXTT0=
EXTT1=
EXTT2=
EXTT3=
EXTT4=
EXTT5=
EXTT6=
EXTT7=
EXTT8=
EXTT9=
EXTT10=
EXTT11=
EXTT12=
EXTT13=
EXTT14=
EXTT15=
EXTT16=
EXTT17=
EXTT18=
EXTT19=
EXTT20=
EXTT21=
EXTT22=
EXTT23=
EXTT24=
EXTT25=
EXTT26=
EXTT27=
PLAYORDER=
